<svg width="13" height="13" viewBox="0 0 13 13" fill="none" xmlns="http://www.w3.org/2000/svg">
<path d="M4.38184 0.882355C2.45234 0.882355 0.882812 2.45333 0.882812 4.38333V9.38333C0.882812 11.3128 2.45379 12.8824 4.38379 12.8824H9.38379C11.3133 12.8824 12.8828 11.3114 12.8828 9.38138V4.38138C12.8828 2.45188 11.3118 0.882355 9.38184 0.882355H4.38184ZM10.3828 2.88235C10.6588 2.88235 10.8828 3.10635 10.8828 3.38235C10.8828 3.65835 10.6588 3.88235 10.3828 3.88235C10.1068 3.88235 9.88281 3.65835 9.88281 3.38235C9.88281 3.10635 10.1068 2.88235 10.3828 2.88235ZM6.88281 3.88235C8.53731 3.88235 9.88281 5.22785 9.88281 6.88235C9.88281 8.53685 8.53731 9.88235 6.88281 9.88235C5.22831 9.88235 3.88281 8.53685 3.88281 6.88235C3.88281 5.22785 5.22831 3.88235 6.88281 3.88235ZM6.88281 4.88235C6.35238 4.88235 5.84367 5.09307 5.4686 5.46814C5.09353 5.84321 4.88281 6.35192 4.88281 6.88235C4.88281 7.41279 5.09353 7.92149 5.4686 8.29657C5.84367 8.67164 6.35238 8.88235 6.88281 8.88235C7.41325 8.88235 7.92195 8.67164 8.29703 8.29657C8.6721 7.92149 8.88281 7.41279 8.88281 6.88235C8.88281 6.35192 8.6721 5.84321 8.29703 5.46814C7.92195 5.09307 7.41325 4.88235 6.88281 4.88235Z" fill="white"/>
</svg>
