<svg width="134" height="33" viewBox="0 0 134 33" fill="none" xmlns="http://www.w3.org/2000/svg">
<g clip-path="url(#clip0_3_1936)">
<path fill-rule="evenodd" clip-rule="evenodd" d="M15.561 3.14751C22.2169 3.14751 26.1586 3.5349 27.7098 3.72795C27.8889 5.43313 28.2557 9.79019 28.2557 16.8873C28.2557 23.9726 27.8902 28.3271 27.7106 30.0384C26.0835 30.23 21.9433 30.627 15.561 30.627C9.13256 30.627 4.84016 30.2243 3.16912 30.0338C2.98886 28.3601 2.62844 24.1103 2.62844 16.8873C2.62844 9.65276 2.98995 5.40132 3.16993 3.73313C4.76472 3.54113 8.85109 3.14751 15.561 3.14751ZM2.08483 1.63019C1.63839 1.70325 1.28688 2.07689 1.21478 2.55498C1.18752 2.73551 0.547363 7.09159 0.547363 16.8873C0.547363 26.6829 1.18752 31.0389 1.21478 31.2196C1.2878 31.7037 1.64713 32.0799 2.10024 32.1467C2.29741 32.1759 7.02572 32.8584 15.561 32.8584C24.0999 32.8584 28.6037 32.1748 28.7912 32.1457C29.2445 32.0753 29.6016 31.6954 29.6707 31.2098C29.698 31.0191 30.3367 26.426 30.3367 16.8873C30.3367 7.34863 29.698 2.75543 29.6707 2.5646C29.6026 2.0859 29.2542 1.70905 28.8083 1.63173C28.6399 1.60244 24.5788 0.916016 15.561 0.916016C6.5476 0.916016 2.26285 1.60096 2.08483 1.63019Z" fill="white"/>
<path fill-rule="evenodd" clip-rule="evenodd" d="M24.3161 22.5772L24.0841 6.88109C23.8395 6.0169 21.2674 6.76104 21.5361 7.71025L22.0662 18.6421L16.9863 9.19101C16.7254 8.26948 14.8248 8.85781 15.0935 9.80696L15.6375 20.6484L10.3979 11.3353C10.3325 11.1045 10.1357 10.9743 9.87958 10.9235C9.07939 10.6874 7.60691 11.3167 7.84703 12.1652C8.15587 13.2562 10.7917 22.5684 10.7917 22.5684C10.9575 23.154 10.9668 23.6306 10.8197 23.9981C10.6724 24.3658 10.4292 24.6047 10.0903 24.715C9.7996 24.8097 9.50076 24.7932 9.19359 24.6659C8.88654 24.5386 8.67326 24.2634 8.61714 24.0647C8.32831 23.0446 5.88084 23.934 6.14546 24.869C6.41019 25.804 7.08146 26.7254 8.02488 27.1572C8.96819 27.5894 10.0161 27.6181 11.168 27.2432C12.0894 26.9434 12.7711 26.2987 13.2129 25.3093C13.6546 24.32 13.7154 23.2591 13.395 22.1271C13.395 22.1271 9.84565 14.6463 9.53555 13.5506L15.9248 25.3081C16.1334 26.0449 18.0655 25.3547 17.873 24.6749L17.3977 14.3759L22.3152 23.2275C22.5234 23.9632 24.5248 23.3146 24.3161 22.5772Z" fill="white"/>
<path fill-rule="evenodd" clip-rule="evenodd" d="M40.5337 24.6429L40.0947 22.8931C41.233 22.599 41.4799 22.0254 41.4799 20.7462V14.2031H43.4819V20.8788C43.4819 22.9958 42.4945 24.2605 40.5337 24.6429ZM47.6231 18.379C46.8964 18.379 46.6221 18.9378 46.6221 19.9377C46.6221 20.9375 46.9101 21.4963 47.6231 21.4963C48.3499 21.4963 48.6378 20.9375 48.6378 19.9377C48.6378 18.9378 48.3499 18.379 47.6231 18.379ZM47.6231 23.2459C45.8403 23.2459 44.6473 21.9226 44.6473 19.9377C44.6473 17.9525 45.8403 16.6145 47.6231 16.6145C49.4058 16.6145 50.6125 17.9525 50.6125 19.9377C50.6125 21.908 49.4058 23.2459 47.6231 23.2459ZM55.2062 23.0402V19.5258C55.2062 18.6731 54.9594 18.2613 54.3972 18.2613C53.9995 18.2613 53.7115 18.4965 53.4648 18.9966V23.0402H51.5997V13.3207H53.4648V17.5997C53.8762 17.0557 54.4932 16.6145 55.1651 16.6145C56.3855 16.6145 57.0712 17.5849 57.0712 19.4082V23.0402H55.2062ZM62.0764 23.0402V19.5112C62.0764 18.6437 61.8705 18.2613 61.2673 18.2613C60.897 18.2613 60.5675 18.5112 60.3346 18.9966V23.0402H58.4699V16.7762H60.1972V17.7614H60.2248C60.5675 17.0263 61.1983 16.6145 61.9803 16.6145C63.1735 16.6145 63.9411 17.629 63.9411 19.3641V23.0402H62.0764ZM73.0878 23.0402H71.7164L70.2352 17.688H70.2076L68.7269 23.0402H67.3693L64.6955 14.2031H66.9168L67.6574 17.1731C67.7396 17.482 67.9041 18.232 68.137 19.4375H68.1646L69.5768 14.2031H70.8798L72.292 19.4375H72.3196C72.5254 18.3202 72.6761 17.5702 72.7721 17.1731L73.5403 14.2031H75.7478L73.0878 23.0402ZM78.3808 18.1436C77.8736 18.1436 77.5303 18.5997 77.4757 19.4082H79.2721C79.2583 18.5848 78.9569 18.1436 78.3808 18.1436ZM77.4757 20.5111C77.6264 21.2903 78.1065 21.7316 78.8609 21.7316C79.2997 21.7316 79.67 21.5551 80.0949 21.2169L80.9453 22.3048C80.2731 22.9371 79.4779 23.2459 78.5861 23.2459C76.7213 23.2459 75.5011 21.9373 75.5011 19.967C75.5011 18.0261 76.7213 16.6145 78.4216 16.6145C79.9989 16.6145 81.1374 17.8642 81.1374 19.7463V20.5111H77.4757ZM83.948 23.2459C82.9469 23.2459 82.1241 22.849 81.6307 22.158L82.4674 21.1582C82.8923 21.5992 83.4133 21.8198 83.9204 21.8198C84.2769 21.8198 84.4558 21.702 84.4558 21.4963C84.4558 21.1875 84.1947 21.1286 83.7152 20.9522C82.3846 20.467 81.7676 19.8494 81.7676 18.7612C81.7676 17.482 82.7141 16.6145 84.0987 16.6145C84.7985 16.6145 85.4701 16.8056 86.1969 17.2025L85.6759 18.7025C85.1136 18.3496 84.5926 18.1876 84.1677 18.1876C83.7974 18.1876 83.5915 18.3496 83.5915 18.6144C83.5915 18.9819 83.9204 19.0407 84.4966 19.276C85.7168 19.7611 86.3205 20.2024 86.3205 21.2903C86.3205 22.4521 85.4155 23.2459 83.948 23.2459ZM89.0904 23.2018C87.9932 23.2018 87.4315 22.5696 87.4315 21.3638V17.8642H86.7179V16.7762H87.4315V14.4088H89.2962V16.7762H90.0368V17.8642H89.2962V21.2463C89.2962 21.702 89.5291 21.952 89.9546 21.952H90.0639V23.0402C89.7074 23.1431 89.3784 23.2018 89.0904 23.2018ZM93.5335 18.379C92.8067 18.379 92.5324 18.9378 92.5324 19.9377C92.5324 20.9375 92.8205 21.4963 93.5335 21.4963C94.2603 21.4963 94.5484 20.9375 94.5484 19.9377C94.5484 18.9378 94.2603 18.379 93.5335 18.379ZM93.5335 23.2459C91.7504 23.2459 90.5578 21.9226 90.5578 19.9377C90.5578 17.9525 91.7504 16.6145 93.5335 16.6145C95.316 16.6145 96.523 17.9525 96.523 19.9377C96.523 21.908 95.316 23.2459 93.5335 23.2459ZM101.117 23.0402V19.5112C101.117 18.6437 100.911 18.2613 100.308 18.2613C99.9374 18.2613 99.6079 18.5112 99.375 18.9966V23.0402H97.5102V16.7762H99.2376V17.7614H99.2652C99.6079 17.0263 100.239 16.6145 101.021 16.6145C102.213 16.6145 102.981 17.629 102.981 19.3641V23.0402H101.117ZM110.222 15.9526C109.618 15.5704 109.083 15.3646 108.508 15.3646C106.739 15.3646 105.093 17.1731 105.093 19.6142C105.093 21.1582 105.902 22.1286 107.15 22.1286C107.575 22.1286 108.028 22.0401 108.521 21.8639L108.905 19.5405H108.055L108.247 18.4377H110.167L109.495 22.4815C108.59 22.9958 107.767 23.2459 107.054 23.2459C105.148 23.2459 103.845 21.7609 103.845 19.6142C103.845 18.0408 104.394 16.6439 105.422 15.5704C106.341 14.6146 107.548 14.0707 108.727 14.0707C109.454 14.0707 110.126 14.2912 110.743 14.7323L110.222 15.9526ZM114.665 17.9378C114.514 17.8642 114.336 17.8348 114.144 17.8348C113.403 17.8348 112.8 18.5701 112.566 19.967L112.059 23.0402H110.949L111.977 16.791H112.854L112.896 17.7761H112.923C113.335 17.0116 113.911 16.6145 114.541 16.6145C114.788 16.6145 115.007 16.6881 115.227 16.8497L114.665 17.9378ZM117.983 17.7173C116.804 17.7173 115.83 18.8495 115.83 20.467C115.83 21.511 116.365 22.1433 117.257 22.1433C118.436 22.1433 119.396 21.0109 119.396 19.3641C119.396 18.3643 118.847 17.7173 117.983 17.7173ZM119.505 22.158C118.874 22.8637 118.052 23.2459 117.174 23.2459C115.679 23.2459 114.719 22.1138 114.719 20.3199C114.719 19.4375 115.049 18.5407 115.624 17.8348C116.283 17.0263 117.119 16.6145 118.065 16.6145C119.505 16.6145 120.506 17.7761 120.506 19.5258C120.506 20.5259 120.15 21.4521 119.505 22.158ZM126.06 21.8492C126.046 21.908 126.046 21.952 126.046 21.9961C126.046 22.1727 126.129 22.2608 126.265 22.2608H126.321L126.183 23.0991C126.019 23.1431 125.854 23.1578 125.717 23.1578C125.196 23.1578 124.908 22.8784 124.867 22.3343H124.839C124.373 22.9519 123.838 23.2459 123.139 23.2459C122.014 23.2459 121.357 22.4962 121.357 21.1434C121.357 20.8935 121.384 20.6434 121.425 20.3786L122.001 16.791H123.125L122.536 20.3933C122.494 20.6581 122.467 20.8935 122.467 21.0993C122.467 21.8198 122.81 22.1874 123.468 22.1874C124.469 22.1874 125.031 21.3638 125.306 19.6876L125.772 16.791H126.882L126.06 21.8492ZM131.01 17.6732C129.982 17.6732 128.994 18.8642 128.994 20.4816C128.994 21.5404 129.488 22.1874 130.27 22.1874C131.353 22.1874 132.313 20.9816 132.313 19.4375C132.313 18.2909 131.833 17.6732 131.01 17.6732ZM132.601 22.0844C131.915 22.8637 131.189 23.2459 130.338 23.2459C129.598 23.2459 129.077 22.9371 128.734 22.3048H128.706L128.13 25.8338H126.992L128.5 16.791H129.406L129.488 17.4379H129.515C129.94 16.9084 130.571 16.6145 131.257 16.6145C132.601 16.6145 133.492 17.7467 133.492 19.4522C133.492 20.5259 133.163 21.4521 132.601 22.0844Z" fill="white"/>
</g>
<defs>
<clipPath id="clip0_3_1936">
<rect width="133" height="32" fill="white" transform="translate(0.547363 0.858429)"/>
</clipPath>
</defs>
</svg>
